# Tiled2Unity generated file. Do not modify by hand.
# Wavefront file for 'WinterTerrain_mesh_0001.obj'

# Vertices (Count = 504)
v -49 -14 0
v -50 -14 0
v -50 -13 0
v -49 -13 0
v -45 -15 0
v -46 -15 0
v -46 -14 0
v -45 -14 0
v -46 -15 0
v -47 -15 0
v -47 -14 0
v -46 -14 0
v -47 -15 0
v -48 -15 0
v -48 -14 0
v -47 -14 0
v -48 -15 0
v -49 -15 0
v -49 -14 0
v -48 -14 0
v -49 -15 0
v -50 -15 0
v -50 -14 0
v -49 -14 0
v -11 -21 0
v -12 -21 0
v -12 -20 0
v -11 -20 0
v -5 -22 0
v -6 -22 0
v -6 -21 0
v -5 -21 0
v -10 -22 0
v -11 -22 0
v -11 -21 0
v -10 -21 0
v -11 -22 0
v -12 -22 0
v -12 -21 0
v -11 -21 0
v -15 -22 0
v -16 -22 0
v -16 -21 0
v -15 -21 0
v 0 -23 0
v -1 -23 0
v -1 -22 0
v 0 -22 0
v -2 -23 0
v -3 -23 0
v -3 -22 0
v -2 -22 0
v -3 -23 0
v -4 -23 0
v -4 -22 0
v -3 -22 0
v -5 -23 0
v -6 -23 0
v -6 -22 0
v -5 -22 0
v -6 -23 0
v -7 -23 0
v -7 -22 0
v -6 -22 0
v -7 -23 0
v -8 -23 0
v -8 -22 0
v -7 -22 0
v -8 -23 0
v -9 -23 0
v -9 -22 0
v -8 -22 0
v -10 -23 0
v -11 -23 0
v -11 -22 0
v -10 -22 0
v -11 -23 0
v -12 -23 0
v -12 -22 0
v -11 -22 0
v -13 -23 0
v -14 -23 0
v -14 -22 0
v -13 -22 0
v -14 -23 0
v -15 -23 0
v -15 -22 0
v -14 -22 0
v -15 -23 0
v -16 -23 0
v -16 -22 0
v -15 -22 0
v -16 -23 0
v -17 -23 0
v -17 -22 0
v -16 -22 0
v -18 -23 0
v -19 -23 0
v -19 -22 0
v -18 -22 0
v -19 -23 0
v -20 -23 0
v -20 -22 0
v -19 -22 0
v 0 -24 0
v -1 -24 0
v -1 -23 0
v 0 -23 0
v -1 -24 0
v -2 -24 0
v -2 -23 0
v -1 -23 0
v -2 -24 0
v -3 -24 0
v -3 -23 0
v -2 -23 0
v -3 -24 0
v -4 -24 0
v -4 -23 0
v -3 -23 0
v -4 -24 0
v -5 -24 0
v -5 -23 0
v -4 -23 0
v -5 -24 0
v -6 -24 0
v -6 -23 0
v -5 -23 0
v -6 -24 0
v -7 -24 0
v -7 -23 0
v -6 -23 0
v -7 -24 0
v -8 -24 0
v -8 -23 0
v -7 -23 0
v -8 -24 0
v -9 -24 0
v -9 -23 0
v -8 -23 0
v -9 -24 0
v -10 -24 0
v -10 -23 0
v -9 -23 0
v -10 -24 0
v -11 -24 0
v -11 -23 0
v -10 -23 0
v -11 -24 0
v -12 -24 0
v -12 -23 0
v -11 -23 0
v -12 -24 0
v -13 -24 0
v -13 -23 0
v -12 -23 0
v -13 -24 0
v -14 -24 0
v -14 -23 0
v -13 -23 0
v -14 -24 0
v -15 -24 0
v -15 -23 0
v -14 -23 0
v -15 -24 0
v -16 -24 0
v -16 -23 0
v -15 -23 0
v -16 -24 0
v -17 -24 0
v -17 -23 0
v -16 -23 0
v -17 -24 0
v -18 -24 0
v -18 -23 0
v -17 -23 0
v -18 -24 0
v -19 -24 0
v -19 -23 0
v -18 -23 0
v -19 -24 0
v -20 -24 0
v -20 -23 0
v -19 -23 0
v -20 -24 0
v -21 -24 0
v -21 -23 0
v -20 -23 0
v -21 -24 0
v -22 -24 0
v -22 -23 0
v -21 -23 0
v -22 -24 0
v -23 -24 0
v -23 -23 0
v -22 -23 0
v -23 -24 0
v -24 -24 0
v -24 -23 0
v -23 -23 0
v -24 -24 0
v -25 -24 0
v -25 -23 0
v -24 -23 0
v -25 -24 0
v -26 -24 0
v -26 -23 0
v -25 -23 0
v -26 -24 0
v -27 -24 0
v -27 -23 0
v -26 -23 0
v -27 -24 0
v -28 -24 0
v -28 -23 0
v -27 -23 0
v -28 -24 0
v -29 -24 0
v -29 -23 0
v -28 -23 0
v -29 -24 0
v -30 -24 0
v -30 -23 0
v -29 -23 0
v -30 -24 0
v -31 -24 0
v -31 -23 0
v -30 -23 0
v -31 -24 0
v -32 -24 0
v -32 -23 0
v -31 -23 0
v -32 -24 0
v -33 -24 0
v -33 -23 0
v -32 -23 0
v -33 -24 0
v -34 -24 0
v -34 -23 0
v -33 -23 0
v -34 -24 0
v -35 -24 0
v -35 -23 0
v -34 -23 0
v -35 -24 0
v -36 -24 0
v -36 -23 0
v -35 -23 0
v -36 -24 0
v -37 -24 0
v -37 -23 0
v -36 -23 0
v -37 -24 0
v -38 -24 0
v -38 -23 0
v -37 -23 0
v -38 -24 0
v -39 -24 0
v -39 -23 0
v -38 -23 0
v -39 -24 0
v -40 -24 0
v -40 -23 0
v -39 -23 0
v -40 -24 0
v -41 -24 0
v -41 -23 0
v -40 -23 0
v -41 -24 0
v -42 -24 0
v -42 -23 0
v -41 -23 0
v -42 -24 0
v -43 -24 0
v -43 -23 0
v -42 -23 0
v -43 -24 0
v -44 -24 0
v -44 -23 0
v -43 -23 0
v -44 -24 0
v -45 -24 0
v -45 -23 0
v -44 -23 0
v -45 -24 0
v -46 -24 0
v -46 -23 0
v -45 -23 0
v -46 -24 0
v -47 -24 0
v -47 -23 0
v -46 -23 0
v -47 -24 0
v -48 -24 0
v -48 -23 0
v -47 -23 0
v -48 -24 0
v -49 -24 0
v -49 -23 0
v -48 -23 0
v -49 -24 0
v -50 -24 0
v -50 -23 0
v -49 -23 0
v 0 -25 0
v -1 -25 0
v -1 -24 0
v 0 -24 0
v -1 -25 0
v -2 -25 0
v -2 -24 0
v -1 -24 0
v -2 -25 0
v -3 -25 0
v -3 -24 0
v -2 -24 0
v -3 -25 0
v -4 -25 0
v -4 -24 0
v -3 -24 0
v -4 -25 0
v -5 -25 0
v -5 -24 0
v -4 -24 0
v -5 -25 0
v -6 -25 0
v -6 -24 0
v -5 -24 0
v -6 -25 0
v -7 -25 0
v -7 -24 0
v -6 -24 0
v -7 -25 0
v -8 -25 0
v -8 -24 0
v -7 -24 0
v -8 -25 0
v -9 -25 0
v -9 -24 0
v -8 -24 0
v -9 -25 0
v -10 -25 0
v -10 -24 0
v -9 -24 0
v -10 -25 0
v -11 -25 0
v -11 -24 0
v -10 -24 0
v -11 -25 0
v -12 -25 0
v -12 -24 0
v -11 -24 0
v -12 -25 0
v -13 -25 0
v -13 -24 0
v -12 -24 0
v -13 -25 0
v -14 -25 0
v -14 -24 0
v -13 -24 0
v -14 -25 0
v -15 -25 0
v -15 -24 0
v -14 -24 0
v -15 -25 0
v -16 -25 0
v -16 -24 0
v -15 -24 0
v -16 -25 0
v -17 -25 0
v -17 -24 0
v -16 -24 0
v -17 -25 0
v -18 -25 0
v -18 -24 0
v -17 -24 0
v -18 -25 0
v -19 -25 0
v -19 -24 0
v -18 -24 0
v -19 -25 0
v -20 -25 0
v -20 -24 0
v -19 -24 0
v -20 -25 0
v -21 -25 0
v -21 -24 0
v -20 -24 0
v -21 -25 0
v -22 -25 0
v -22 -24 0
v -21 -24 0
v -22 -25 0
v -23 -25 0
v -23 -24 0
v -22 -24 0
v -23 -25 0
v -24 -25 0
v -24 -24 0
v -23 -24 0
v -24 -25 0
v -25 -25 0
v -25 -24 0
v -24 -24 0
v -25 -25 0
v -26 -25 0
v -26 -24 0
v -25 -24 0
v -26 -25 0
v -27 -25 0
v -27 -24 0
v -26 -24 0
v -27 -25 0
v -28 -25 0
v -28 -24 0
v -27 -24 0
v -28 -25 0
v -29 -25 0
v -29 -24 0
v -28 -24 0
v -29 -25 0
v -30 -25 0
v -30 -24 0
v -29 -24 0
v -30 -25 0
v -31 -25 0
v -31 -24 0
v -30 -24 0
v -31 -25 0
v -32 -25 0
v -32 -24 0
v -31 -24 0
v -32 -25 0
v -33 -25 0
v -33 -24 0
v -32 -24 0
v -33 -25 0
v -34 -25 0
v -34 -24 0
v -33 -24 0
v -34 -25 0
v -35 -25 0
v -35 -24 0
v -34 -24 0
v -35 -25 0
v -36 -25 0
v -36 -24 0
v -35 -24 0
v -36 -25 0
v -37 -25 0
v -37 -24 0
v -36 -24 0
v -37 -25 0
v -38 -25 0
v -38 -24 0
v -37 -24 0
v -38 -25 0
v -39 -25 0
v -39 -24 0
v -38 -24 0
v -39 -25 0
v -40 -25 0
v -40 -24 0
v -39 -24 0
v -40 -25 0
v -41 -25 0
v -41 -24 0
v -40 -24 0
v -41 -25 0
v -42 -25 0
v -42 -24 0
v -41 -24 0
v -42 -25 0
v -43 -25 0
v -43 -24 0
v -42 -24 0
v -43 -25 0
v -44 -25 0
v -44 -24 0
v -43 -24 0
v -44 -25 0
v -45 -25 0
v -45 -24 0
v -44 -24 0
v -45 -25 0
v -46 -25 0
v -46 -24 0
v -45 -24 0
v -46 -25 0
v -47 -25 0
v -47 -24 0
v -46 -24 0
v -47 -25 0
v -48 -25 0
v -48 -24 0
v -47 -24 0
v -48 -25 0
v -49 -25 0
v -49 -24 0
v -48 -24 0
v -49 -25 0
v -50 -25 0
v -50 -24 0
v -49 -24 0

# Texture cooridinates (Count = 76)
vt 0.4349711 0.6011561
vt 0.4653179 0.6011561
vt 0.4653179 0.6315029
vt 0.4349711 0.6315029
vt 0.1690751 0.4349711
vt 0.199422 0.4349711
vt 0.199422 0.4653179
vt 0.1690751 0.4653179
vt 0.1026012 0.4349711
vt 0.132948 0.4349711
vt 0.132948 0.4653179
vt 0.1026012 0.4653179
vt 0.1026012 0.2355492
vt 0.132948 0.2355492
vt 0.132948 0.265896
vt 0.1026012 0.265896
vt 0.1358382 0.2355492
vt 0.166185 0.2355492
vt 0.166185 0.265896
vt 0.1358382 0.265896
vt 0.1358382 0.3020231
vt 0.166185 0.3020231
vt 0.166185 0.3323699
vt 0.1358382 0.3323699
vt 0.03612717 0.3684971
vt 0.06647399 0.3684971
vt 0.06647399 0.3988439
vt 0.03612717 0.3988439
vt 0.1358382 0.3684971
vt 0.166185 0.3684971
vt 0.166185 0.3988439
vt 0.1358382 0.3988439
vt 0.06936416 0.2355492
vt 0.09971099 0.2355492
vt 0.09971099 0.265896
vt 0.06936416 0.265896
vt 0.3684971 0.4017341
vt 0.3988439 0.4017341
vt 0.3988439 0.4320809
vt 0.3684971 0.4320809
vt 0.1690751 0.3020231
vt 0.199422 0.3020231
vt 0.199422 0.3323699
vt 0.1690751 0.3323699
vt 0.5679191 0.933526
vt 0.5982659 0.933526
vt 0.5982659 0.9638728
vt 0.5679191 0.9638728
vt 0.1026012 0.3684971
vt 0.132948 0.3684971
vt 0.132948 0.3988439
vt 0.1026012 0.3988439
vt 0.1026012 0.900289
vt 0.132948 0.900289
vt 0.132948 0.9306358
vt 0.1026012 0.9306358
vt 0.1358382 0.3352601
vt 0.166185 0.3352601
vt 0.166185 0.365607
vt 0.1358382 0.365607
vt 0.1690751 0.3352601
vt 0.199422 0.3352601
vt 0.199422 0.365607
vt 0.1690751 0.365607
vt 0.1026012 0.3352601
vt 0.132948 0.3352601
vt 0.132948 0.365607
vt 0.1026012 0.365607
vt 0.06936416 0.867052
vt 0.09971099 0.867052
vt 0.09971099 0.8973988
vt 0.06936416 0.8973988
vt 0.06936416 0.4017341
vt 0.09971099 0.4017341
vt 0.09971099 0.4320809
vt 0.06936416 0.4320809

# Normal
vn 0 0 -1

# Mesh description
g WinterTerrain_mesh_0001

# Faces
f 1/1/1 2/2/1 3/3/1 4/4/1
f 5/5/1 6/6/1 7/7/1 8/8/1
f 9/9/1 10/10/1 11/11/1 12/12/1
f 13/9/1 14/10/1 15/11/1 16/12/1
f 17/9/1 18/10/1 19/11/1 20/12/1
f 21/9/1 22/10/1 23/11/1 24/12/1
f 25/13/1 26/14/1 27/15/1 28/16/1
f 29/13/1 30/14/1 31/15/1 32/16/1
f 33/13/1 34/14/1 35/15/1 36/16/1
f 37/17/1 38/18/1 39/19/1 40/20/1
f 41/13/1 42/14/1 43/15/1 44/16/1
f 45/21/1 46/22/1 47/23/1 48/24/1
f 49/25/1 50/26/1 51/27/1 52/28/1
f 53/29/1 54/30/1 55/31/1 56/32/1
f 57/33/1 58/34/1 59/35/1 60/36/1
f 61/29/1 62/30/1 63/31/1 64/32/1
f 65/37/1 66/38/1 67/39/1 68/40/1
f 69/25/1 70/26/1 71/27/1 72/28/1
f 73/33/1 74/34/1 75/35/1 76/36/1
f 77/33/1 78/34/1 79/35/1 80/36/1
f 81/41/1 82/42/1 83/43/1 84/44/1
f 85/45/1 86/46/1 87/47/1 88/48/1
f 89/33/1 90/34/1 91/35/1 92/36/1
f 93/29/1 94/30/1 95/31/1 96/32/1
f 97/49/1 98/50/1 99/51/1 100/52/1
f 101/41/1 102/42/1 103/43/1 104/44/1
f 105/53/1 106/54/1 107/55/1 108/56/1
f 109/53/1 110/54/1 111/55/1 112/56/1
f 113/53/1 114/54/1 115/55/1 116/56/1
f 117/53/1 118/54/1 119/55/1 120/56/1
f 121/53/1 122/54/1 123/55/1 124/56/1
f 125/53/1 126/54/1 127/55/1 128/56/1
f 129/53/1 130/54/1 131/55/1 132/56/1
f 133/53/1 134/54/1 135/55/1 136/56/1
f 137/53/1 138/54/1 139/55/1 140/56/1
f 141/53/1 142/54/1 143/55/1 144/56/1
f 145/53/1 146/54/1 147/55/1 148/56/1
f 149/53/1 150/54/1 151/55/1 152/56/1
f 153/53/1 154/54/1 155/55/1 156/56/1
f 157/53/1 158/54/1 159/55/1 160/56/1
f 161/53/1 162/54/1 163/55/1 164/56/1
f 165/53/1 166/54/1 167/55/1 168/56/1
f 169/53/1 170/54/1 171/55/1 172/56/1
f 173/53/1 174/54/1 175/55/1 176/56/1
f 177/53/1 178/54/1 179/55/1 180/56/1
f 181/53/1 182/54/1 183/55/1 184/56/1
f 185/57/1 186/58/1 187/59/1 188/60/1
f 189/61/1 190/62/1 191/63/1 192/64/1
f 193/57/1 194/58/1 195/59/1 196/60/1
f 197/65/1 198/66/1 199/67/1 200/68/1
f 201/57/1 202/58/1 203/59/1 204/60/1
f 205/65/1 206/66/1 207/67/1 208/68/1
f 209/61/1 210/62/1 211/63/1 212/64/1
f 213/57/1 214/58/1 215/59/1 216/60/1
f 217/65/1 218/66/1 219/67/1 220/68/1
f 221/61/1 222/62/1 223/63/1 224/64/1
f 225/57/1 226/58/1 227/59/1 228/60/1
f 229/65/1 230/66/1 231/67/1 232/68/1
f 233/57/1 234/58/1 235/59/1 236/60/1
f 237/57/1 238/58/1 239/59/1 240/60/1
f 241/61/1 242/62/1 243/63/1 244/64/1
f 245/57/1 246/58/1 247/59/1 248/60/1
f 249/57/1 250/58/1 251/59/1 252/60/1
f 253/61/1 254/62/1 255/63/1 256/64/1
f 257/57/1 258/58/1 259/59/1 260/60/1
f 261/65/1 262/66/1 263/67/1 264/68/1
f 265/57/1 266/58/1 267/59/1 268/60/1
f 269/65/1 270/66/1 271/67/1 272/68/1
f 273/61/1 274/62/1 275/63/1 276/64/1
f 277/57/1 278/58/1 279/59/1 280/60/1
f 281/65/1 282/66/1 283/67/1 284/68/1
f 285/61/1 286/62/1 287/63/1 288/64/1
f 289/57/1 290/58/1 291/59/1 292/60/1
f 293/65/1 294/66/1 295/67/1 296/68/1
f 297/57/1 298/58/1 299/59/1 300/60/1
f 301/57/1 302/58/1 303/59/1 304/60/1
f 305/69/1 306/70/1 307/71/1 308/72/1
f 309/69/1 310/70/1 311/71/1 312/72/1
f 313/69/1 314/70/1 315/71/1 316/72/1
f 317/69/1 318/70/1 319/71/1 320/72/1
f 321/69/1 322/70/1 323/71/1 324/72/1
f 325/69/1 326/70/1 327/71/1 328/72/1
f 329/69/1 330/70/1 331/71/1 332/72/1
f 333/69/1 334/70/1 335/71/1 336/72/1
f 337/69/1 338/70/1 339/71/1 340/72/1
f 341/69/1 342/70/1 343/71/1 344/72/1
f 345/69/1 346/70/1 347/71/1 348/72/1
f 349/69/1 350/70/1 351/71/1 352/72/1
f 353/69/1 354/70/1 355/71/1 356/72/1
f 357/69/1 358/70/1 359/71/1 360/72/1
f 361/69/1 362/70/1 363/71/1 364/72/1
f 365/69/1 366/70/1 367/71/1 368/72/1
f 369/69/1 370/70/1 371/71/1 372/72/1
f 373/69/1 374/70/1 375/71/1 376/72/1
f 377/69/1 378/70/1 379/71/1 380/72/1
f 381/69/1 382/70/1 383/71/1 384/72/1
f 385/73/1 386/74/1 387/75/1 388/76/1
f 389/73/1 390/74/1 391/75/1 392/76/1
f 393/73/1 394/74/1 395/75/1 396/76/1
f 397/73/1 398/74/1 399/75/1 400/76/1
f 401/73/1 402/74/1 403/75/1 404/76/1
f 405/73/1 406/74/1 407/75/1 408/76/1
f 409/73/1 410/74/1 411/75/1 412/76/1
f 413/73/1 414/74/1 415/75/1 416/76/1
f 417/73/1 418/74/1 419/75/1 420/76/1
f 421/73/1 422/74/1 423/75/1 424/76/1
f 425/73/1 426/74/1 427/75/1 428/76/1
f 429/73/1 430/74/1 431/75/1 432/76/1
f 433/73/1 434/74/1 435/75/1 436/76/1
f 437/73/1 438/74/1 439/75/1 440/76/1
f 441/73/1 442/74/1 443/75/1 444/76/1
f 445/73/1 446/74/1 447/75/1 448/76/1
f 449/73/1 450/74/1 451/75/1 452/76/1
f 453/73/1 454/74/1 455/75/1 456/76/1
f 457/73/1 458/74/1 459/75/1 460/76/1
f 461/73/1 462/74/1 463/75/1 464/76/1
f 465/73/1 466/74/1 467/75/1 468/76/1
f 469/73/1 470/74/1 471/75/1 472/76/1
f 473/73/1 474/74/1 475/75/1 476/76/1
f 477/73/1 478/74/1 479/75/1 480/76/1
f 481/73/1 482/74/1 483/75/1 484/76/1
f 485/73/1 486/74/1 487/75/1 488/76/1
f 489/73/1 490/74/1 491/75/1 492/76/1
f 493/73/1 494/74/1 495/75/1 496/76/1
f 497/73/1 498/74/1 499/75/1 500/76/1
f 501/73/1 502/74/1 503/75/1 504/76/1

