# Tiled2Unity generated file. Do not modify by hand.
# Wavefront file for 'WinterTerrain_mesh_0002.obj'

# Vertices (Count = 68)
v -25 -16 0
v -26 -16 0
v -26 -15 0
v -25 -15 0
v -26 -16 0
v -27 -16 0
v -27 -15 0
v -26 -15 0
v -27 -16 0
v -28 -16 0
v -28 -15 0
v -27 -15 0
v -30 -16 0
v -31 -16 0
v -31 -15 0
v -30 -15 0
v -31 -16 0
v -32 -16 0
v -32 -15 0
v -31 -15 0
v -32 -16 0
v -33 -16 0
v -33 -15 0
v -32 -15 0
v -35 -16 0
v -36 -16 0
v -36 -15 0
v -35 -15 0
v -36 -16 0
v -37 -16 0
v -37 -15 0
v -36 -15 0
v -37 -16 0
v -38 -16 0
v -38 -15 0
v -37 -15 0
v -40 -16 0
v -41 -16 0
v -41 -15 0
v -40 -15 0
v -41 -16 0
v -42 -16 0
v -42 -15 0
v -41 -15 0
v -42 -16 0
v -43 -16 0
v -43 -15 0
v -42 -15 0
v -20 -17 0
v -21 -17 0
v -21 -16 0
v -20 -16 0
v -21 -17 0
v -22 -17 0
v -22 -16 0
v -21 -16 0
v -22 -17 0
v -23 -17 0
v -23 -16 0
v -22 -16 0
v -18 -20 0
v -19 -20 0
v -19 -19 0
v -18 -19 0
v -18 -22 0
v -19 -22 0
v -19 -21 0
v -18 -21 0

# Texture cooridinates (Count = 24)
vt 0.1690751 0.4349711
vt 0.199422 0.4349711
vt 0.199422 0.4653179
vt 0.1690751 0.4653179
vt 0.1026012 0.4349711
vt 0.132948 0.4349711
vt 0.132948 0.4653179
vt 0.1026012 0.4653179
vt 0.1690751 0.4017341
vt 0.199422 0.4017341
vt 0.199422 0.4320809
vt 0.1690751 0.4320809
vt 0.03612717 0.4017341
vt 0.06647399 0.4017341
vt 0.06647399 0.4320809
vt 0.03612717 0.4320809
vt 0.1026012 0.4017341
vt 0.132948 0.4017341
vt 0.132948 0.4320809
vt 0.1026012 0.4320809
vt 0.2687861 0.900289
vt 0.2991329 0.900289
vt 0.2991329 0.9306358
vt 0.2687861 0.9306358

# Normal
vn 0 0 -1

# Mesh description
g WinterTerrain_mesh_0002

# Faces
f 1/1/1 2/2/1 3/3/1 4/4/1
f 5/5/1 6/6/1 7/7/1 8/8/1
f 9/9/1 10/10/1 11/11/1 12/12/1
f 13/13/1 14/14/1 15/15/1 16/16/1
f 17/5/1 18/6/1 19/7/1 20/8/1
f 21/17/1 22/18/1 23/19/1 24/20/1
f 25/13/1 26/14/1 27/15/1 28/16/1
f 29/5/1 30/6/1 31/7/1 32/8/1
f 33/17/1 34/18/1 35/19/1 36/20/1
f 37/13/1 38/14/1 39/15/1 40/16/1
f 41/5/1 42/6/1 43/7/1 44/8/1
f 45/17/1 46/18/1 47/19/1 48/20/1
f 49/1/1 50/2/1 51/3/1 52/4/1
f 53/5/1 54/6/1 55/7/1 56/8/1
f 57/9/1 58/10/1 59/11/1 60/12/1
f 61/21/1 62/22/1 63/23/1 64/24/1
f 65/21/1 66/22/1 67/23/1 68/24/1

