# Tiled2Unity generated file. Do not modify by hand.
# Wavefront file for 'Terrain_mesh_0003.obj'

# Vertices (Count = 24)
v -17 -10 0
v -18 -10 0
v -18 -9 0
v -17 -9 0
v -18 -10 0
v -19 -10 0
v -19 -9 0
v -18 -9 0
v -19 -10 0
v -20 -10 0
v -20 -9 0
v -19 -9 0
v -21 -10 0
v -22 -10 0
v -22 -9 0
v -21 -9 0
v -22 -10 0
v -23 -10 0
v -23 -9 0
v -22 -9 0
v -23 -10 0
v -24 -10 0
v -24 -9 0
v -23 -9 0

# Texture cooridinates (Count = 12)
vt 0.1690751 0.900289
vt 0.199422 0.900289
vt 0.199422 0.9306358
vt 0.1690751 0.9306358
vt 0.1026012 0.900289
vt 0.132948 0.900289
vt 0.132948 0.9306358
vt 0.1026012 0.9306358
vt 0.1690751 0.867052
vt 0.199422 0.867052
vt 0.199422 0.8973988
vt 0.1690751 0.8973988

# Normal
vn 0 0 -1

# Mesh description
g Terrain_mesh_0003

# Faces
f 1/1/1 2/2/1 3/3/1 4/4/1
f 5/5/1 6/6/1 7/7/1 8/8/1
f 9/9/1 10/10/1 11/11/1 12/12/1
f 13/1/1 14/2/1 15/3/1 16/4/1
f 17/5/1 18/6/1 19/7/1 20/8/1
f 21/9/1 22/10/1 23/11/1 24/12/1

