# Tiled2Unity generated file. Do not modify by hand.
# Wavefront file for 'Escena_Ra?ces_mesh_0001.obj'

# Vertices (Count = 268)
v -54.85714 -64 0
v -57.90476 -64 0
v -57.90476 -60.95238 0
v -54.85714 -60.95238 0
v -54.85714 -67.04762 0
v -57.90476 -67.04762 0
v -57.90476 -64 0
v -54.85714 -64 0
v -57.90476 -67.04762 0
v -60.95238 -67.04762 0
v -60.95238 -64 0
v -57.90476 -64 0
v -60.95238 -67.04762 0
v -64 -67.04762 0
v -64 -64 0
v -60.95238 -64 0
v 0 -70.09524 0
v -3.047619 -70.09524 0
v -3.047619 -67.04762 0
v 0 -67.04762 0
v -3.047619 -70.09524 0
v -6.095238 -70.09524 0
v -6.095238 -67.04762 0
v -3.047619 -67.04762 0
v -6.095238 -70.09524 0
v -9.142858 -70.09524 0
v -9.142858 -67.04762 0
v -6.095238 -67.04762 0
v -9.142858 -70.09524 0
v -12.19048 -70.09524 0
v -12.19048 -67.04762 0
v -9.142858 -67.04762 0
v -12.19048 -70.09524 0
v -15.2381 -70.09524 0
v -15.2381 -67.04762 0
v -12.19048 -67.04762 0
v -15.2381 -70.09524 0
v -18.28572 -70.09524 0
v -18.28572 -67.04762 0
v -15.2381 -67.04762 0
v -18.28572 -70.09524 0
v -21.33333 -70.09524 0
v -21.33333 -67.04762 0
v -18.28572 -67.04762 0
v -21.33333 -70.09524 0
v -24.38095 -70.09524 0
v -24.38095 -67.04762 0
v -21.33333 -67.04762 0
v -24.38095 -70.09524 0
v -27.42857 -70.09524 0
v -27.42857 -67.04762 0
v -24.38095 -67.04762 0
v -27.42857 -70.09524 0
v -30.47619 -70.09524 0
v -30.47619 -67.04762 0
v -27.42857 -67.04762 0
v -30.47619 -70.09524 0
v -33.52381 -70.09524 0
v -33.52381 -67.04762 0
v -30.47619 -67.04762 0
v -33.52381 -70.09524 0
v -36.57143 -70.09524 0
v -36.57143 -67.04762 0
v -33.52381 -67.04762 0
v -36.57143 -70.09524 0
v -39.61905 -70.09524 0
v -39.61905 -67.04762 0
v -36.57143 -67.04762 0
v -39.61905 -70.09524 0
v -42.66667 -70.09524 0
v -42.66667 -67.04762 0
v -39.61905 -67.04762 0
v -42.66667 -70.09524 0
v -45.71429 -70.09524 0
v -45.71429 -67.04762 0
v -42.66667 -67.04762 0
v -45.71429 -70.09524 0
v -48.76191 -70.09524 0
v -48.76191 -67.04762 0
v -45.71429 -67.04762 0
v -48.76191 -70.09524 0
v -51.80952 -70.09524 0
v -51.80952 -67.04762 0
v -48.76191 -67.04762 0
v -51.80952 -70.09524 0
v -54.85714 -70.09524 0
v -54.85714 -67.04762 0
v -51.80952 -67.04762 0
v -54.85714 -70.09524 0
v -57.90476 -70.09524 0
v -57.90476 -67.04762 0
v -54.85714 -67.04762 0
v -57.90476 -70.09524 0
v -60.95238 -70.09524 0
v -60.95238 -67.04762 0
v -57.90476 -67.04762 0
v -60.95238 -70.09524 0
v -64 -70.09524 0
v -64 -67.04762 0
v -60.95238 -67.04762 0
v 0 -73.14286 0
v -3.047619 -73.14286 0
v -3.047619 -70.09524 0
v 0 -70.09524 0
v -3.047619 -73.14286 0
v -6.095238 -73.14286 0
v -6.095238 -70.09524 0
v -3.047619 -70.09524 0
v -6.095238 -73.14286 0
v -9.142858 -73.14286 0
v -9.142858 -70.09524 0
v -6.095238 -70.09524 0
v -9.142858 -73.14286 0
v -12.19048 -73.14286 0
v -12.19048 -70.09524 0
v -9.142858 -70.09524 0
v -12.19048 -73.14286 0
v -15.2381 -73.14286 0
v -15.2381 -70.09524 0
v -12.19048 -70.09524 0
v -15.2381 -73.14286 0
v -18.28572 -73.14286 0
v -18.28572 -70.09524 0
v -15.2381 -70.09524 0
v -18.28572 -73.14286 0
v -21.33333 -73.14286 0
v -21.33333 -70.09524 0
v -18.28572 -70.09524 0
v -21.33333 -73.14286 0
v -24.38095 -73.14286 0
v -24.38095 -70.09524 0
v -21.33333 -70.09524 0
v -24.38095 -73.14286 0
v -27.42857 -73.14286 0
v -27.42857 -70.09524 0
v -24.38095 -70.09524 0
v -27.42857 -73.14286 0
v -30.47619 -73.14286 0
v -30.47619 -70.09524 0
v -27.42857 -70.09524 0
v -30.47619 -73.14286 0
v -33.52381 -73.14286 0
v -33.52381 -70.09524 0
v -30.47619 -70.09524 0
v -33.52381 -73.14286 0
v -36.57143 -73.14286 0
v -36.57143 -70.09524 0
v -33.52381 -70.09524 0
v -36.57143 -73.14286 0
v -39.61905 -73.14286 0
v -39.61905 -70.09524 0
v -36.57143 -70.09524 0
v -39.61905 -73.14286 0
v -42.66667 -73.14286 0
v -42.66667 -70.09524 0
v -39.61905 -70.09524 0
v -42.66667 -73.14286 0
v -45.71429 -73.14286 0
v -45.71429 -70.09524 0
v -42.66667 -70.09524 0
v -45.71429 -73.14286 0
v -48.76191 -73.14286 0
v -48.76191 -70.09524 0
v -45.71429 -70.09524 0
v -48.76191 -73.14286 0
v -51.80952 -73.14286 0
v -51.80952 -70.09524 0
v -48.76191 -70.09524 0
v -51.80952 -73.14286 0
v -54.85714 -73.14286 0
v -54.85714 -70.09524 0
v -51.80952 -70.09524 0
v -54.85714 -73.14286 0
v -57.90476 -73.14286 0
v -57.90476 -70.09524 0
v -54.85714 -70.09524 0
v -57.90476 -73.14286 0
v -60.95238 -73.14286 0
v -60.95238 -70.09524 0
v -57.90476 -70.09524 0
v -60.95238 -73.14286 0
v -64 -73.14286 0
v -64 -70.09524 0
v -60.95238 -70.09524 0
v 0 -76.19048 0
v -3.047619 -76.19048 0
v -3.047619 -73.14286 0
v 0 -73.14286 0
v -3.047619 -76.19048 0
v -6.095238 -76.19048 0
v -6.095238 -73.14286 0
v -3.047619 -73.14286 0
v -6.095238 -76.19048 0
v -9.142858 -76.19048 0
v -9.142858 -73.14286 0
v -6.095238 -73.14286 0
v -9.142858 -76.19048 0
v -12.19048 -76.19048 0
v -12.19048 -73.14286 0
v -9.142858 -73.14286 0
v -12.19048 -76.19048 0
v -15.2381 -76.19048 0
v -15.2381 -73.14286 0
v -12.19048 -73.14286 0
v -15.2381 -76.19048 0
v -18.28572 -76.19048 0
v -18.28572 -73.14286 0
v -15.2381 -73.14286 0
v -18.28572 -76.19048 0
v -21.33333 -76.19048 0
v -21.33333 -73.14286 0
v -18.28572 -73.14286 0
v -21.33333 -76.19048 0
v -24.38095 -76.19048 0
v -24.38095 -73.14286 0
v -21.33333 -73.14286 0
v -24.38095 -76.19048 0
v -27.42857 -76.19048 0
v -27.42857 -73.14286 0
v -24.38095 -73.14286 0
v -27.42857 -76.19048 0
v -30.47619 -76.19048 0
v -30.47619 -73.14286 0
v -27.42857 -73.14286 0
v -30.47619 -76.19048 0
v -33.52381 -76.19048 0
v -33.52381 -73.14286 0
v -30.47619 -73.14286 0
v -33.52381 -76.19048 0
v -36.57143 -76.19048 0
v -36.57143 -73.14286 0
v -33.52381 -73.14286 0
v -36.57143 -76.19048 0
v -39.61905 -76.19048 0
v -39.61905 -73.14286 0
v -36.57143 -73.14286 0
v -39.61905 -76.19048 0
v -42.66667 -76.19048 0
v -42.66667 -73.14286 0
v -39.61905 -73.14286 0
v -42.66667 -76.19048 0
v -45.71429 -76.19048 0
v -45.71429 -73.14286 0
v -42.66667 -73.14286 0
v -45.71429 -76.19048 0
v -48.76191 -76.19048 0
v -48.76191 -73.14286 0
v -45.71429 -73.14286 0
v -48.76191 -76.19048 0
v -51.80952 -76.19048 0
v -51.80952 -73.14286 0
v -48.76191 -73.14286 0
v -51.80952 -76.19048 0
v -54.85714 -76.19048 0
v -54.85714 -73.14286 0
v -51.80952 -73.14286 0
v -54.85714 -76.19048 0
v -57.90476 -76.19048 0
v -57.90476 -73.14286 0
v -54.85714 -73.14286 0
v -57.90476 -76.19048 0
v -60.95238 -76.19048 0
v -60.95238 -73.14286 0
v -57.90476 -73.14286 0
v -60.95238 -76.19048 0
v -64 -76.19048 0
v -64 -73.14286 0
v -60.95238 -73.14286 0

# Texture cooridinates (Count = 10)
vt 0.5 0.5
vt 0.625 0.5
vt 0.625 0.625
vt 0.5 0.625
vt 0.625 0.75
vt 0.75 0.75
vt 0.75 0.875
vt 0.625 0.875
vt 0.5 0.375
vt 0.625 0.375

# Normal
vn 0 0 -1

# Mesh description
g Escena_Ra?ces_mesh_0001

# Faces
f 1/1/1 2/2/1 3/3/1 4/4/1
f 5/5/1 6/6/1 7/7/1 8/8/1
f 9/5/1 10/6/1 11/7/1 12/8/1
f 13/5/1 14/6/1 15/7/1 16/8/1
f 17/9/1 18/10/1 19/2/1 20/1/1
f 21/9/1 22/10/1 23/2/1 24/1/1
f 25/9/1 26/10/1 27/2/1 28/1/1
f 29/9/1 30/10/1 31/2/1 32/1/1
f 33/9/1 34/10/1 35/2/1 36/1/1
f 37/9/1 38/10/1 39/2/1 40/1/1
f 41/9/1 42/10/1 43/2/1 44/1/1
f 45/9/1 46/10/1 47/2/1 48/1/1
f 49/9/1 50/10/1 51/2/1 52/1/1
f 53/9/1 54/10/1 55/2/1 56/1/1
f 57/9/1 58/10/1 59/2/1 60/1/1
f 61/9/1 62/10/1 63/2/1 64/1/1
f 65/9/1 66/10/1 67/2/1 68/1/1
f 69/9/1 70/10/1 71/2/1 72/1/1
f 73/9/1 74/10/1 75/2/1 76/1/1
f 77/9/1 78/10/1 79/2/1 80/1/1
f 81/9/1 82/10/1 83/2/1 84/1/1
f 85/9/1 86/10/1 87/2/1 88/1/1
f 89/9/1 90/10/1 91/2/1 92/1/1
f 93/9/1 94/10/1 95/2/1 96/1/1
f 97/9/1 98/10/1 99/2/1 100/1/1
f 101/9/1 102/10/1 103/2/1 104/1/1
f 105/9/1 106/10/1 107/2/1 108/1/1
f 109/9/1 110/10/1 111/2/1 112/1/1
f 113/9/1 114/10/1 115/2/1 116/1/1
f 117/9/1 118/10/1 119/2/1 120/1/1
f 121/9/1 122/10/1 123/2/1 124/1/1
f 125/9/1 126/10/1 127/2/1 128/1/1
f 129/9/1 130/10/1 131/2/1 132/1/1
f 133/9/1 134/10/1 135/2/1 136/1/1
f 137/9/1 138/10/1 139/2/1 140/1/1
f 141/9/1 142/10/1 143/2/1 144/1/1
f 145/9/1 146/10/1 147/2/1 148/1/1
f 149/9/1 150/10/1 151/2/1 152/1/1
f 153/9/1 154/10/1 155/2/1 156/1/1
f 157/9/1 158/10/1 159/2/1 160/1/1
f 161/9/1 162/10/1 163/2/1 164/1/1
f 165/9/1 166/10/1 167/2/1 168/1/1
f 169/9/1 170/10/1 171/2/1 172/1/1
f 173/9/1 174/10/1 175/2/1 176/1/1
f 177/9/1 178/10/1 179/2/1 180/1/1
f 181/9/1 182/10/1 183/2/1 184/1/1
f 185/9/1 186/10/1 187/2/1 188/1/1
f 189/9/1 190/10/1 191/2/1 192/1/1
f 193/9/1 194/10/1 195/2/1 196/1/1
f 197/9/1 198/10/1 199/2/1 200/1/1
f 201/9/1 202/10/1 203/2/1 204/1/1
f 205/9/1 206/10/1 207/2/1 208/1/1
f 209/9/1 210/10/1 211/2/1 212/1/1
f 213/9/1 214/10/1 215/2/1 216/1/1
f 217/9/1 218/10/1 219/2/1 220/1/1
f 221/9/1 222/10/1 223/2/1 224/1/1
f 225/9/1 226/10/1 227/2/1 228/1/1
f 229/9/1 230/10/1 231/2/1 232/1/1
f 233/9/1 234/10/1 235/2/1 236/1/1
f 237/9/1 238/10/1 239/2/1 240/1/1
f 241/9/1 242/10/1 243/2/1 244/1/1
f 245/9/1 246/10/1 247/2/1 248/1/1
f 249/9/1 250/10/1 251/2/1 252/1/1
f 253/9/1 254/10/1 255/2/1 256/1/1
f 257/9/1 258/10/1 259/2/1 260/1/1
f 261/9/1 262/10/1 263/2/1 264/1/1
f 265/9/1 266/10/1 267/2/1 268/1/1

