# Tiled2Unity generated file. Do not modify by hand.
# Wavefront file for 'Escena_Ra?ces_mesh_0004.obj'

# Vertices (Count = 96)
v -36.57143 -33.52381 0
v -39.61905 -33.52381 0
v -39.61905 -30.47619 0
v -36.57143 -30.47619 0
v -39.61905 -33.52381 0
v -42.66667 -33.52381 0
v -42.66667 -30.47619 0
v -39.61905 -30.47619 0
v -42.66667 -33.52381 0
v -45.71429 -33.52381 0
v -45.71429 -30.47619 0
v -42.66667 -30.47619 0
v -15.2381 -39.61905 0
v -18.28572 -39.61905 0
v -18.28572 -36.57143 0
v -15.2381 -36.57143 0
v -18.28572 -39.61905 0
v -21.33333 -39.61905 0
v -21.33333 -36.57143 0
v -18.28572 -36.57143 0
v -45.71429 -39.61905 0
v -48.76191 -39.61905 0
v -48.76191 -36.57143 0
v -45.71429 -36.57143 0
v -24.38095 -42.66667 0
v -27.42857 -42.66667 0
v -27.42857 -39.61905 0
v -24.38095 -39.61905 0
v -27.42857 -42.66667 0
v -30.47619 -42.66667 0
v -30.47619 -39.61905 0
v -27.42857 -39.61905 0
v -30.47619 -42.66667 0
v -33.52381 -42.66667 0
v -33.52381 -39.61905 0
v -30.47619 -39.61905 0
v -33.52381 -42.66667 0
v -36.57143 -42.66667 0
v -36.57143 -39.61905 0
v -33.52381 -39.61905 0
v -3.047619 -45.71429 0
v -6.095238 -45.71429 0
v -6.095238 -42.66667 0
v -3.047619 -42.66667 0
v -6.095238 -45.71429 0
v -9.142858 -45.71429 0
v -9.142858 -42.66667 0
v -6.095238 -42.66667 0
v -21.33333 -45.71429 0
v -24.38095 -45.71429 0
v -24.38095 -42.66667 0
v -21.33333 -42.66667 0
v -12.19048 -48.76191 0
v -15.2381 -48.76191 0
v -15.2381 -45.71429 0
v -12.19048 -45.71429 0
v -9.142858 -51.80952 0
v -12.19048 -51.80952 0
v -12.19048 -48.76191 0
v -9.142858 -48.76191 0
v -42.66667 -51.80952 0
v -45.71429 -51.80952 0
v -45.71429 -48.76191 0
v -42.66667 -48.76191 0
v -45.71429 -51.80952 0
v -48.76191 -51.80952 0
v -48.76191 -48.76191 0
v -45.71429 -48.76191 0
v -48.76191 -51.80952 0
v -51.80952 -51.80952 0
v -51.80952 -48.76191 0
v -48.76191 -48.76191 0
v -24.38095 -54.85714 0
v -27.42857 -54.85714 0
v -27.42857 -51.80952 0
v -24.38095 -51.80952 0
v -27.42857 -57.90476 0
v -30.47619 -57.90476 0
v -30.47619 -54.85714 0
v -27.42857 -54.85714 0
v -30.47619 -57.90476 0
v -33.52381 -57.90476 0
v -33.52381 -54.85714 0
v -30.47619 -54.85714 0
v -3.047619 -60.95238 0
v -6.095238 -60.95238 0
v -6.095238 -57.90476 0
v -3.047619 -57.90476 0
v -3.047619 -64 0
v -6.095238 -64 0
v -6.095238 -60.95238 0
v -3.047619 -60.95238 0
v -15.2381 -64 0
v -18.28572 -64 0
v -18.28572 -60.95238 0
v -15.2381 -60.95238 0

# Texture cooridinates (Count = 21)
vt 0.25 0.25
vt 0.375 0.25
vt 0.375 0.375
vt 0.25 0.375
vt 0.5 0.25
vt 0.5 0.375
vt 0.75 0.375
vt 0.875 0.375
vt 0.875 0.5
vt 0.75 0.5
vt 0.625 0.375
vt 0.625 0.5
vt 0.5 0.5
vt 0.625 0.625
vt 0.5 0.625
vt 0.25 0.125
vt 0.375 0.125
vt 0.75 0.875
vt 0.875 0.875
vt 0.875 1
vt 0.75 1

# Normal
vn 0 0 -1

# Mesh description
g Escena_Ra?ces_mesh_0004

# Faces
f 1/1/1 2/2/1 3/3/1 4/4/1
f 5/2/1 6/5/1 7/6/1 8/3/1
f 9/7/1 10/8/1 11/9/1 12/10/1
f 13/11/1 14/7/1 15/10/1 16/12/1
f 17/7/1 18/8/1 19/9/1 20/10/1
f 21/13/1 22/12/1 23/14/1 24/15/1
f 25/1/1 26/2/1 27/3/1 28/4/1
f 29/2/1 30/5/1 31/6/1 32/3/1
f 33/7/1 34/8/1 35/9/1 36/10/1
f 37/16/1 38/17/1 39/2/1 40/1/1
f 41/11/1 42/7/1 43/10/1 44/12/1
f 45/7/1 46/8/1 47/9/1 48/10/1
f 49/13/1 50/12/1 51/14/1 52/15/1
f 53/16/1 54/17/1 55/2/1 56/1/1
f 57/13/1 58/12/1 59/14/1 60/15/1
f 61/1/1 62/2/1 63/3/1 64/4/1
f 65/2/1 66/5/1 67/6/1 68/3/1
f 69/7/1 70/8/1 71/9/1 72/10/1
f 73/16/1 74/17/1 75/2/1 76/1/1
f 77/13/1 78/12/1 79/14/1 80/15/1
f 81/18/1 82/19/1 83/20/1 84/21/1
f 85/16/1 86/17/1 87/2/1 88/1/1
f 89/13/1 90/12/1 91/14/1 92/15/1
f 93/13/1 94/12/1 95/14/1 96/15/1

