# Tiled2Unity generated file. Do not modify by hand.
# Wavefront file for 'Escena1_mesh_0002.obj'

# Vertices (Count = 20)
v -5 -6 0
v -6 -6 0
v -6 -5 0
v -5 -5 0
v -6 -6 0
v -7 -6 0
v -7 -5 0
v -6 -5 0
v -7 -6 0
v -8 -6 0
v -8 -5 0
v -7 -5 0
v -8 -6 0
v -9 -6 0
v -9 -5 0
v -8 -5 0
v -9 -6 0
v -10 -6 0
v -10 -5 0
v -9 -5 0

# Texture cooridinates (Count = 12)
vt 0.2023121 0.03612715
vt 0.232659 0.03612715
vt 0.232659 0.06647396
vt 0.2023121 0.06647396
vt 0.2355491 0.03612715
vt 0.265896 0.03612715
vt 0.265896 0.06647396
vt 0.2355491 0.06647396
vt 0.3684971 0.867052
vt 0.3988439 0.867052
vt 0.3988439 0.8973988
vt 0.3684971 0.8973988

# Normal
vn 0 0 -1

# Mesh description
g Escena1_mesh_0002

# Faces
f 1/1/1 2/2/1 3/3/1 4/4/1
f 5/5/1 6/6/1 7/7/1 8/8/1
f 9/1/1 10/2/1 11/3/1 12/4/1
f 13/9/1 14/10/1 15/11/1 16/12/1
f 17/1/1 18/2/1 19/3/1 20/4/1

