# Tiled2Unity generated file. Do not modify by hand.
# Wavefront file for 'Escena1_mesh_0003.obj'

# Vertices (Count = 24)
v -17 -5 0
v -18 -5 0
v -18 -4 0
v -17 -4 0
v -9 -6 0
v -10 -6 0
v -10 -5 0
v -9 -5 0
v -17 -7 0
v -18 -7 0
v -18 -6 0
v -17 -6 0
v -1 -8 0
v -2 -8 0
v -2 -7 0
v -1 -7 0
v -12 -8 0
v -13 -8 0
v -13 -7 0
v -12 -7 0
v -13 -8 0
v -14 -8 0
v -14 -7 0
v -13 -7 0

# Texture cooridinates (Count = 16)
vt 0.2687861 0.833815
vt 0.2991329 0.833815
vt 0.2991329 0.8641618
vt 0.2687861 0.8641618
vt 0.5679191 0.966763
vt 0.5982659 0.966763
vt 0.5982659 0.9971098
vt 0.5679191 0.9971098
vt 0.5346821 0.933526
vt 0.5650289 0.933526
vt 0.5650289 0.9638728
vt 0.5346821 0.9638728
vt 0.6011561 0.933526
vt 0.6315029 0.933526
vt 0.6315029 0.9638728
vt 0.6011561 0.9638728

# Normal
vn 0 0 -1

# Mesh description
g Escena1_mesh_0003

# Faces
f 1/1/1 2/2/1 3/3/1 4/4/1
f 5/5/1 6/6/1 7/7/1 8/8/1
f 9/1/1 10/2/1 11/3/1 12/4/1
f 13/9/1 14/10/1 15/11/1 16/12/1
f 17/5/1 18/6/1 19/7/1 20/8/1
f 21/13/1 22/14/1 23/15/1 24/16/1

