# Tiled2Unity generated file. Do not modify by hand.
# Wavefront file for 'Terrain2_mesh_0003.obj'

# Vertices (Count = 812)
v -17 -6 0
v -18 -6 0
v -18 -5 0
v -17 -5 0
v -18 -6 0
v -19 -6 0
v -19 -5 0
v -18 -5 0
v -19 -6 0
v -20 -6 0
v -20 -5 0
v -19 -5 0
v -22 -6 0
v -23 -6 0
v -23 -5 0
v -22 -5 0
v -23 -6 0
v -24 -6 0
v -24 -5 0
v -23 -5 0
v -24 -6 0
v -25 -6 0
v -25 -5 0
v -24 -5 0
v -27 -6 0
v -28 -6 0
v -28 -5 0
v -27 -5 0
v -28 -6 0
v -29 -6 0
v -29 -5 0
v -28 -5 0
v -29 -6 0
v -30 -6 0
v -30 -5 0
v -29 -5 0
v -13 -7 0
v -14 -7 0
v -14 -6 0
v -13 -6 0
v -31 -7 0
v -32 -7 0
v -32 -6 0
v -31 -6 0
v -32 -7 0
v -33 -7 0
v -33 -6 0
v -32 -6 0
v -33 -7 0
v -34 -7 0
v -34 -6 0
v -33 -6 0
v -13 -8 0
v -14 -8 0
v -14 -7 0
v -13 -7 0
v -14 -8 0
v -15 -8 0
v -15 -7 0
v -14 -7 0
v -15 -8 0
v -16 -8 0
v -16 -7 0
v -15 -7 0
v -17 -10 0
v -18 -10 0
v -18 -9 0
v -17 -9 0
v -18 -10 0
v -19 -10 0
v -19 -9 0
v -18 -9 0
v -19 -10 0
v -20 -10 0
v -20 -9 0
v -19 -9 0
v -36 -10 0
v -37 -10 0
v -37 -9 0
v -36 -9 0
v -37 -10 0
v -38 -10 0
v -38 -9 0
v -37 -9 0
v -38 -10 0
v -39 -10 0
v -39 -9 0
v -38 -9 0
v -15 -11 0
v -16 -11 0
v -16 -10 0
v -15 -10 0
v -43 -11 0
v -44 -11 0
v -44 -10 0
v -43 -10 0
v -51 -11 0
v -52 -11 0
v -52 -10 0
v -51 -10 0
v -57 -11 0
v -58 -11 0
v -58 -10 0
v -57 -10 0
v -5 -12 0
v -6 -12 0
v -6 -11 0
v -5 -11 0
v -6 -12 0
v -7 -12 0
v -7 -11 0
v -6 -11 0
v -7 -12 0
v -8 -12 0
v -8 -11 0
v -7 -11 0
v -8 -12 0
v -9 -12 0
v -9 -11 0
v -8 -11 0
v -9 -12 0
v -10 -12 0
v -10 -11 0
v -9 -11 0
v -42 -12 0
v -43 -12 0
v -43 -11 0
v -42 -11 0
v -43 -12 0
v -44 -12 0
v -44 -11 0
v -43 -11 0
v -44 -12 0
v -45 -12 0
v -45 -11 0
v -44 -11 0
v -50 -12 0
v -51 -12 0
v -51 -11 0
v -50 -11 0
v -51 -12 0
v -52 -12 0
v -52 -11 0
v -51 -11 0
v -52 -12 0
v -53 -12 0
v -53 -11 0
v -52 -11 0
v -56 -12 0
v -57 -12 0
v -57 -11 0
v -56 -11 0
v -57 -12 0
v -58 -12 0
v -58 -11 0
v -57 -11 0
v -58 -12 0
v -59 -12 0
v -59 -11 0
v -58 -11 0
v -4 -13 0
v -5 -13 0
v -5 -12 0
v -4 -12 0
v -5 -13 0
v -6 -13 0
v -6 -12 0
v -5 -12 0
v -6 -13 0
v -7 -13 0
v -7 -12 0
v -6 -12 0
v -7 -13 0
v -8 -13 0
v -8 -12 0
v -7 -12 0
v -8 -13 0
v -9 -13 0
v -9 -12 0
v -8 -12 0
v -9 -13 0
v -10 -13 0
v -10 -12 0
v -9 -12 0
v -10 -13 0
v -11 -13 0
v -11 -12 0
v -10 -12 0
v -15 -13 0
v -16 -13 0
v -16 -12 0
v -15 -12 0
v -42 -13 0
v -43 -13 0
v -43 -12 0
v -42 -12 0
v -43 -13 0
v -44 -13 0
v -44 -12 0
v -43 -12 0
v -44 -13 0
v -45 -13 0
v -45 -12 0
v -44 -12 0
v -50 -13 0
v -51 -13 0
v -51 -12 0
v -50 -12 0
v -51 -13 0
v -52 -13 0
v -52 -12 0
v -51 -12 0
v -52 -13 0
v -53 -13 0
v -53 -12 0
v -52 -12 0
v -56 -13 0
v -57 -13 0
v -57 -12 0
v -56 -12 0
v -57 -13 0
v -58 -13 0
v -58 -12 0
v -57 -12 0
v -58 -13 0
v -59 -13 0
v -59 -12 0
v -58 -12 0
v 0 -14 0
v -1 -14 0
v -1 -13 0
v 0 -13 0
v -2 -14 0
v -3 -14 0
v -3 -13 0
v -2 -13 0
v -3 -14 0
v -4 -14 0
v -4 -13 0
v -3 -13 0
v -4 -14 0
v -5 -14 0
v -5 -13 0
v -4 -13 0
v -5 -14 0
v -6 -14 0
v -6 -13 0
v -5 -13 0
v -6 -14 0
v -7 -14 0
v -7 -13 0
v -6 -13 0
v -7 -14 0
v -8 -14 0
v -8 -13 0
v -7 -13 0
v -8 -14 0
v -9 -14 0
v -9 -13 0
v -8 -13 0
v -9 -14 0
v -10 -14 0
v -10 -13 0
v -9 -13 0
v -10 -14 0
v -11 -14 0
v -11 -13 0
v -10 -13 0
v -11 -14 0
v -12 -14 0
v -12 -13 0
v -11 -13 0
v -13 -14 0
v -14 -14 0
v -14 -13 0
v -13 -13 0
v -16 -14 0
v -17 -14 0
v -17 -13 0
v -16 -13 0
v -17 -14 0
v -18 -14 0
v -18 -13 0
v -17 -13 0
v -40 -14 0
v -41 -14 0
v -41 -13 0
v -40 -13 0
v -41 -14 0
v -42 -14 0
v -42 -13 0
v -41 -13 0
v -43 -14 0
v -44 -14 0
v -44 -13 0
v -43 -13 0
v -45 -14 0
v -46 -14 0
v -46 -13 0
v -45 -13 0
v -51 -14 0
v -52 -14 0
v -52 -13 0
v -51 -13 0
v -52 -14 0
v -53 -14 0
v -53 -13 0
v -52 -13 0
v -53 -14 0
v -54 -14 0
v -54 -13 0
v -53 -13 0
v -57 -14 0
v -58 -14 0
v -58 -13 0
v -57 -13 0
v -58 -14 0
v -59 -14 0
v -59 -13 0
v -58 -13 0
v -60 -14 0
v -61 -14 0
v -61 -13 0
v -60 -13 0
v 0 -15 0
v -1 -15 0
v -1 -14 0
v 0 -14 0
v -1 -15 0
v -2 -15 0
v -2 -14 0
v -1 -14 0
v -2 -15 0
v -3 -15 0
v -3 -14 0
v -2 -14 0
v -3 -15 0
v -4 -15 0
v -4 -14 0
v -3 -14 0
v -4 -15 0
v -5 -15 0
v -5 -14 0
v -4 -14 0
v -5 -15 0
v -6 -15 0
v -6 -14 0
v -5 -14 0
v -6 -15 0
v -7 -15 0
v -7 -14 0
v -6 -14 0
v -7 -15 0
v -8 -15 0
v -8 -14 0
v -7 -14 0
v -8 -15 0
v -9 -15 0
v -9 -14 0
v -8 -14 0
v -9 -15 0
v -10 -15 0
v -10 -14 0
v -9 -14 0
v -10 -15 0
v -11 -15 0
v -11 -14 0
v -10 -14 0
v -11 -15 0
v -12 -15 0
v -12 -14 0
v -11 -14 0
v -12 -15 0
v -13 -15 0
v -13 -14 0
v -12 -14 0
v -13 -15 0
v -14 -15 0
v -14 -14 0
v -13 -14 0
v -14 -15 0
v -15 -15 0
v -15 -14 0
v -14 -14 0
v -15 -15 0
v -16 -15 0
v -16 -14 0
v -15 -14 0
v -16 -15 0
v -17 -15 0
v -17 -14 0
v -16 -14 0
v -17 -15 0
v -18 -15 0
v -18 -14 0
v -17 -14 0
v -18 -15 0
v -19 -15 0
v -19 -14 0
v -18 -14 0
v -19 -15 0
v -20 -15 0
v -20 -14 0
v -19 -14 0
v -20 -15 0
v -21 -15 0
v -21 -14 0
v -20 -14 0
v -21 -15 0
v -22 -15 0
v -22 -14 0
v -21 -14 0
v -22 -15 0
v -23 -15 0
v -23 -14 0
v -22 -14 0
v -23 -15 0
v -24 -15 0
v -24 -14 0
v -23 -14 0
v -24 -15 0
v -25 -15 0
v -25 -14 0
v -24 -14 0
v -25 -15 0
v -26 -15 0
v -26 -14 0
v -25 -14 0
v -26 -15 0
v -27 -15 0
v -27 -14 0
v -26 -14 0
v -27 -15 0
v -28 -15 0
v -28 -14 0
v -27 -14 0
v -28 -15 0
v -29 -15 0
v -29 -14 0
v -28 -14 0
v -29 -15 0
v -30 -15 0
v -30 -14 0
v -29 -14 0
v -30 -15 0
v -31 -15 0
v -31 -14 0
v -30 -14 0
v -31 -15 0
v -32 -15 0
v -32 -14 0
v -31 -14 0
v -32 -15 0
v -33 -15 0
v -33 -14 0
v -32 -14 0
v -33 -15 0
v -34 -15 0
v -34 -14 0
v -33 -14 0
v -34 -15 0
v -35 -15 0
v -35 -14 0
v -34 -14 0
v -35 -15 0
v -36 -15 0
v -36 -14 0
v -35 -14 0
v -36 -15 0
v -37 -15 0
v -37 -14 0
v -36 -14 0
v -37 -15 0
v -38 -15 0
v -38 -14 0
v -37 -14 0
v -38 -15 0
v -39 -15 0
v -39 -14 0
v -38 -14 0
v -39 -15 0
v -40 -15 0
v -40 -14 0
v -39 -14 0
v -40 -15 0
v -41 -15 0
v -41 -14 0
v -40 -14 0
v -41 -15 0
v -42 -15 0
v -42 -14 0
v -41 -14 0
v -42 -15 0
v -43 -15 0
v -43 -14 0
v -42 -14 0
v -43 -15 0
v -44 -15 0
v -44 -14 0
v -43 -14 0
v -44 -15 0
v -45 -15 0
v -45 -14 0
v -44 -14 0
v -45 -15 0
v -46 -15 0
v -46 -14 0
v -45 -14 0
v -46 -15 0
v -47 -15 0
v -47 -14 0
v -46 -14 0
v -47 -15 0
v -48 -15 0
v -48 -14 0
v -47 -14 0
v -48 -15 0
v -49 -15 0
v -49 -14 0
v -48 -14 0
v -49 -15 0
v -50 -15 0
v -50 -14 0
v -49 -14 0
v -50 -15 0
v -51 -15 0
v -51 -14 0
v -50 -14 0
v -51 -15 0
v -52 -15 0
v -52 -14 0
v -51 -14 0
v -52 -15 0
v -53 -15 0
v -53 -14 0
v -52 -14 0
v -53 -15 0
v -54 -15 0
v -54 -14 0
v -53 -14 0
v -54 -15 0
v -55 -15 0
v -55 -14 0
v -54 -14 0
v -55 -15 0
v -56 -15 0
v -56 -14 0
v -55 -14 0
v -56 -15 0
v -57 -15 0
v -57 -14 0
v -56 -14 0
v -57 -15 0
v -58 -15 0
v -58 -14 0
v -57 -14 0
v -58 -15 0
v -59 -15 0
v -59 -14 0
v -58 -14 0
v -59 -15 0
v -60 -15 0
v -60 -14 0
v -59 -14 0
v -60 -15 0
v -61 -15 0
v -61 -14 0
v -60 -14 0
v 0 -16 0
v -1 -16 0
v -1 -15 0
v 0 -15 0
v -1 -16 0
v -2 -16 0
v -2 -15 0
v -1 -15 0
v -2 -16 0
v -3 -16 0
v -3 -15 0
v -2 -15 0
v -3 -16 0
v -4 -16 0
v -4 -15 0
v -3 -15 0
v -4 -16 0
v -5 -16 0
v -5 -15 0
v -4 -15 0
v -5 -16 0
v -6 -16 0
v -6 -15 0
v -5 -15 0
v -6 -16 0
v -7 -16 0
v -7 -15 0
v -6 -15 0
v -7 -16 0
v -8 -16 0
v -8 -15 0
v -7 -15 0
v -8 -16 0
v -9 -16 0
v -9 -15 0
v -8 -15 0
v -9 -16 0
v -10 -16 0
v -10 -15 0
v -9 -15 0
v -10 -16 0
v -11 -16 0
v -11 -15 0
v -10 -15 0
v -11 -16 0
v -12 -16 0
v -12 -15 0
v -11 -15 0
v -12 -16 0
v -13 -16 0
v -13 -15 0
v -12 -15 0
v -13 -16 0
v -14 -16 0
v -14 -15 0
v -13 -15 0
v -14 -16 0
v -15 -16 0
v -15 -15 0
v -14 -15 0
v -15 -16 0
v -16 -16 0
v -16 -15 0
v -15 -15 0
v -16 -16 0
v -17 -16 0
v -17 -15 0
v -16 -15 0
v -17 -16 0
v -18 -16 0
v -18 -15 0
v -17 -15 0
v -18 -16 0
v -19 -16 0
v -19 -15 0
v -18 -15 0
v -19 -16 0
v -20 -16 0
v -20 -15 0
v -19 -15 0
v -20 -16 0
v -21 -16 0
v -21 -15 0
v -20 -15 0
v -21 -16 0
v -22 -16 0
v -22 -15 0
v -21 -15 0
v -22 -16 0
v -23 -16 0
v -23 -15 0
v -22 -15 0
v -23 -16 0
v -24 -16 0
v -24 -15 0
v -23 -15 0
v -24 -16 0
v -25 -16 0
v -25 -15 0
v -24 -15 0
v -25 -16 0
v -26 -16 0
v -26 -15 0
v -25 -15 0
v -26 -16 0
v -27 -16 0
v -27 -15 0
v -26 -15 0
v -27 -16 0
v -28 -16 0
v -28 -15 0
v -27 -15 0
v -28 -16 0
v -29 -16 0
v -29 -15 0
v -28 -15 0
v -29 -16 0
v -30 -16 0
v -30 -15 0
v -29 -15 0
v -30 -16 0
v -31 -16 0
v -31 -15 0
v -30 -15 0
v -31 -16 0
v -32 -16 0
v -32 -15 0
v -31 -15 0
v -32 -16 0
v -33 -16 0
v -33 -15 0
v -32 -15 0
v -33 -16 0
v -34 -16 0
v -34 -15 0
v -33 -15 0
v -34 -16 0
v -35 -16 0
v -35 -15 0
v -34 -15 0
v -35 -16 0
v -36 -16 0
v -36 -15 0
v -35 -15 0
v -36 -16 0
v -37 -16 0
v -37 -15 0
v -36 -15 0
v -37 -16 0
v -38 -16 0
v -38 -15 0
v -37 -15 0
v -38 -16 0
v -39 -16 0
v -39 -15 0
v -38 -15 0
v -39 -16 0
v -40 -16 0
v -40 -15 0
v -39 -15 0
v -40 -16 0
v -41 -16 0
v -41 -15 0
v -40 -15 0
v -41 -16 0
v -42 -16 0
v -42 -15 0
v -41 -15 0
v -42 -16 0
v -43 -16 0
v -43 -15 0
v -42 -15 0
v -43 -16 0
v -44 -16 0
v -44 -15 0
v -43 -15 0
v -44 -16 0
v -45 -16 0
v -45 -15 0
v -44 -15 0
v -45 -16 0
v -46 -16 0
v -46 -15 0
v -45 -15 0
v -46 -16 0
v -47 -16 0
v -47 -15 0
v -46 -15 0
v -47 -16 0
v -48 -16 0
v -48 -15 0
v -47 -15 0
v -48 -16 0
v -49 -16 0
v -49 -15 0
v -48 -15 0
v -49 -16 0
v -50 -16 0
v -50 -15 0
v -49 -15 0
v -50 -16 0
v -51 -16 0
v -51 -15 0
v -50 -15 0
v -51 -16 0
v -52 -16 0
v -52 -15 0
v -51 -15 0
v -52 -16 0
v -53 -16 0
v -53 -15 0
v -52 -15 0
v -53 -16 0
v -54 -16 0
v -54 -15 0
v -53 -15 0
v -54 -16 0
v -55 -16 0
v -55 -15 0
v -54 -15 0
v -55 -16 0
v -56 -16 0
v -56 -15 0
v -55 -15 0
v -56 -16 0
v -57 -16 0
v -57 -15 0
v -56 -15 0
v -57 -16 0
v -58 -16 0
v -58 -15 0
v -57 -15 0
v -58 -16 0
v -59 -16 0
v -59 -15 0
v -58 -15 0
v -59 -16 0
v -60 -16 0
v -60 -15 0
v -59 -15 0
v -60 -16 0
v -61 -16 0
v -61 -15 0
v -60 -15 0

# Texture cooridinates (Count = 124)
vt 0.1690751 0.900289
vt 0.199422 0.900289
vt 0.199422 0.9306358
vt 0.1690751 0.9306358
vt 0.1026012 0.900289
vt 0.132948 0.900289
vt 0.132948 0.9306358
vt 0.1026012 0.9306358
vt 0.1690751 0.867052
vt 0.199422 0.867052
vt 0.199422 0.8973988
vt 0.1690751 0.8973988
vt 0.1690751 0.833815
vt 0.199422 0.833815
vt 0.199422 0.8641618
vt 0.1690751 0.8641618
vt 0.1026012 0.833815
vt 0.132948 0.833815
vt 0.132948 0.8641618
vt 0.1026012 0.8641618
vt 0.1690751 0.800578
vt 0.199422 0.800578
vt 0.199422 0.8309249
vt 0.1690751 0.8309249
vt 0.5679191 0.966763
vt 0.5982659 0.966763
vt 0.5982659 0.9971098
vt 0.5679191 0.9971098
vt 0.1690751 0.7008671
vt 0.199422 0.7008671
vt 0.199422 0.7312139
vt 0.1690751 0.7312139
vt 0.1026012 0.7008671
vt 0.132948 0.7008671
vt 0.132948 0.7312139
vt 0.1026012 0.7312139
vt 0.1690751 0.6676301
vt 0.199422 0.6676301
vt 0.199422 0.6979769
vt 0.1690751 0.6979769
vt 0.2687861 0.833815
vt 0.2991329 0.833815
vt 0.2991329 0.8641618
vt 0.2687861 0.8641618
vt 0.002890173 0.2687861
vt 0.033237 0.2687861
vt 0.033237 0.2991329
vt 0.002890173 0.2991329
vt 0.2023121 0.03612715
vt 0.232659 0.03612715
vt 0.232659 0.06647396
vt 0.2023121 0.06647396
vt 0.2355491 0.03612715
vt 0.265896 0.03612715
vt 0.265896 0.06647396
vt 0.2355491 0.06647396
vt 0.2687861 0.2687861
vt 0.2991329 0.2687861
vt 0.2991329 0.2991329
vt 0.2687861 0.2991329
vt 0.3020231 0.2687861
vt 0.33237 0.2687861
vt 0.33237 0.2991329
vt 0.3020231 0.2991329
vt 0.3352601 0.2687861
vt 0.3656069 0.2687861
vt 0.3656069 0.2991329
vt 0.3352601 0.2991329
vt 0.2023121 0.833815
vt 0.232659 0.833815
vt 0.232659 0.8641618
vt 0.2023121 0.8641618
vt 0.2355491 0.833815
vt 0.265896 0.833815
vt 0.265896 0.8641618
vt 0.2355491 0.8641618
vt 0.3020231 0.833815
vt 0.33237 0.833815
vt 0.33237 0.8641618
vt 0.3020231 0.8641618
vt 0.2687861 0.2355492
vt 0.2991329 0.2355492
vt 0.2991329 0.265896
vt 0.2687861 0.265896
vt 0.3020231 0.2355492
vt 0.33237 0.2355492
vt 0.33237 0.265896
vt 0.3020231 0.265896
vt 0.3352601 0.2355492
vt 0.3656069 0.2355492
vt 0.3656069 0.265896
vt 0.3352601 0.265896
vt 0.6011561 0.933526
vt 0.6315029 0.933526
vt 0.6315029 0.9638728
vt 0.6011561 0.9638728
vt 0.5346821 0.933526
vt 0.5650289 0.933526
vt 0.5650289 0.9638728
vt 0.5346821 0.9638728
vt 0.2023121 0.800578
vt 0.232659 0.800578
vt 0.232659 0.8309249
vt 0.2023121 0.8309249
vt 0.06936416 0.800578
vt 0.09971099 0.800578
vt 0.09971099 0.8309249
vt 0.06936416 0.8309249
vt 0.2355491 0.800578
vt 0.265896 0.800578
vt 0.265896 0.8309249
vt 0.2355491 0.8309249
vt 0.03612717 0.2687861
vt 0.06647399 0.2687861
vt 0.06647399 0.2991329
vt 0.03612717 0.2991329
vt 0.4349711 0.966763
vt 0.4653179 0.966763
vt 0.4653179 0.9971098
vt 0.4349711 0.9971098
vt 0.4017341 0.933526
vt 0.4320809 0.933526
vt 0.4320809 0.9638728
vt 0.4017341 0.9638728

# Normal
vn 0 0 -1

# Mesh description
g Terrain2_mesh_0003

# Faces
f 1/1/1 2/2/1 3/3/1 4/4/1
f 5/5/1 6/6/1 7/7/1 8/8/1
f 9/9/1 10/10/1 11/11/1 12/12/1
f 13/1/1 14/2/1 15/3/1 16/4/1
f 17/5/1 18/6/1 19/7/1 20/8/1
f 21/9/1 22/10/1 23/11/1 24/12/1
f 25/13/1 26/14/1 27/15/1 28/16/1
f 29/17/1 30/18/1 31/19/1 32/20/1
f 33/21/1 34/22/1 35/23/1 36/24/1
f 37/25/1 38/26/1 39/27/1 40/28/1
f 41/29/1 42/30/1 43/31/1 44/32/1
f 45/33/1 46/34/1 47/35/1 48/36/1
f 49/37/1 50/38/1 51/39/1 52/40/1
f 53/13/1 54/14/1 55/15/1 56/16/1
f 57/17/1 58/18/1 59/19/1 60/20/1
f 61/21/1 62/22/1 63/23/1 64/24/1
f 65/13/1 66/14/1 67/15/1 68/16/1
f 69/17/1 70/18/1 71/19/1 72/20/1
f 73/21/1 74/22/1 75/23/1 76/24/1
f 77/29/1 78/30/1 79/31/1 80/32/1
f 81/33/1 82/34/1 83/35/1 84/36/1
f 85/37/1 86/38/1 87/39/1 88/40/1
f 89/41/1 90/42/1 91/43/1 92/44/1
f 93/45/1 94/46/1 95/47/1 96/48/1
f 97/45/1 98/46/1 99/47/1 100/48/1
f 101/45/1 102/46/1 103/47/1 104/48/1
f 105/49/1 106/50/1 107/51/1 108/52/1
f 109/53/1 110/54/1 111/55/1 112/56/1
f 113/49/1 114/50/1 115/51/1 116/52/1
f 117/53/1 118/54/1 119/55/1 120/56/1
f 121/49/1 122/50/1 123/51/1 124/52/1
f 125/57/1 126/58/1 127/59/1 128/60/1
f 129/61/1 130/62/1 131/63/1 132/64/1
f 133/65/1 134/66/1 135/67/1 136/68/1
f 137/57/1 138/58/1 139/59/1 140/60/1
f 141/61/1 142/62/1 143/63/1 144/64/1
f 145/65/1 146/66/1 147/67/1 148/68/1
f 149/57/1 150/58/1 151/59/1 152/60/1
f 153/61/1 154/62/1 155/63/1 156/64/1
f 157/65/1 158/66/1 159/67/1 160/68/1
f 161/69/1 162/70/1 163/71/1 164/72/1
f 165/17/1 166/18/1 167/19/1 168/20/1
f 169/17/1 170/18/1 171/19/1 172/20/1
f 173/17/1 174/18/1 175/19/1 176/20/1
f 177/17/1 178/18/1 179/19/1 180/20/1
f 181/17/1 182/18/1 183/19/1 184/20/1
f 185/73/1 186/74/1 187/75/1 188/76/1
f 189/77/1 190/78/1 191/79/1 192/80/1
f 193/81/1 194/82/1 195/83/1 196/84/1
f 197/85/1 198/86/1 199/87/1 200/88/1
f 201/89/1 202/90/1 203/91/1 204/92/1
f 205/81/1 206/82/1 207/83/1 208/84/1
f 209/85/1 210/86/1 211/87/1 212/88/1
f 213/89/1 214/90/1 215/91/1 216/92/1
f 217/81/1 218/82/1 219/83/1 220/84/1
f 221/85/1 222/86/1 223/87/1 224/88/1
f 225/89/1 226/90/1 227/91/1 228/92/1
f 229/93/1 230/94/1 231/95/1 232/96/1
f 233/97/1 234/98/1 235/99/1 236/100/1
f 237/69/1 238/70/1 239/71/1 240/72/1
f 241/101/1 242/102/1 243/103/1 244/104/1
f 245/105/1 246/106/1 247/107/1 248/108/1
f 249/105/1 250/106/1 251/107/1 252/108/1
f 253/105/1 254/106/1 255/107/1 256/108/1
f 257/105/1 258/106/1 259/107/1 260/108/1
f 261/105/1 262/106/1 263/107/1 264/108/1
f 265/109/1 266/110/1 267/111/1 268/112/1
f 269/73/1 270/74/1 271/75/1 272/76/1
f 273/97/1 274/98/1 275/99/1 276/100/1
f 277/25/1 278/26/1 279/27/1 280/28/1
f 281/93/1 282/94/1 283/95/1 284/96/1
f 285/93/1 286/94/1 287/95/1 288/96/1
f 289/25/1 290/26/1 291/27/1 292/28/1
f 293/113/1 294/114/1 295/115/1 296/116/1
f 297/97/1 298/98/1 299/99/1 300/100/1
f 301/113/1 302/114/1 303/115/1 304/116/1
f 305/25/1 306/26/1 307/27/1 308/28/1
f 309/97/1 310/98/1 311/99/1 312/100/1
f 313/113/1 314/114/1 315/115/1 316/116/1
f 317/25/1 318/26/1 319/27/1 320/28/1
f 321/93/1 322/94/1 323/95/1 324/96/1
f 325/17/1 326/18/1 327/19/1 328/20/1
f 329/17/1 330/18/1 331/19/1 332/20/1
f 333/17/1 334/18/1 335/19/1 336/20/1
f 337/101/1 338/102/1 339/103/1 340/104/1
f 341/105/1 342/106/1 343/107/1 344/108/1
f 345/105/1 346/106/1 347/107/1 348/108/1
f 349/105/1 350/106/1 351/107/1 352/108/1
f 353/105/1 354/106/1 355/107/1 356/108/1
f 357/105/1 358/106/1 359/107/1 360/108/1
f 361/105/1 362/106/1 363/107/1 364/108/1
f 365/105/1 366/106/1 367/107/1 368/108/1
f 369/109/1 370/110/1 371/111/1 372/112/1
f 373/17/1 374/18/1 375/19/1 376/20/1
f 377/17/1 378/18/1 379/19/1 380/20/1
f 381/17/1 382/18/1 383/19/1 384/20/1
f 385/17/1 386/18/1 387/19/1 388/20/1
f 389/17/1 390/18/1 391/19/1 392/20/1
f 393/17/1 394/18/1 395/19/1 396/20/1
f 397/117/1 398/118/1 399/119/1 400/120/1
f 401/117/1 402/118/1 403/119/1 404/120/1
f 405/117/1 406/118/1 407/119/1 408/120/1
f 409/117/1 410/118/1 411/119/1 412/120/1
f 413/117/1 414/118/1 415/119/1 416/120/1
f 417/117/1 418/118/1 419/119/1 420/120/1
f 421/117/1 422/118/1 423/119/1 424/120/1
f 425/117/1 426/118/1 427/119/1 428/120/1
f 429/117/1 430/118/1 431/119/1 432/120/1
f 433/117/1 434/118/1 435/119/1 436/120/1
f 437/117/1 438/118/1 439/119/1 440/120/1
f 441/117/1 442/118/1 443/119/1 444/120/1
f 445/117/1 446/118/1 447/119/1 448/120/1
f 449/117/1 450/118/1 451/119/1 452/120/1
f 453/117/1 454/118/1 455/119/1 456/120/1
f 457/117/1 458/118/1 459/119/1 460/120/1
f 461/117/1 462/118/1 463/119/1 464/120/1
f 465/117/1 466/118/1 467/119/1 468/120/1
f 469/117/1 470/118/1 471/119/1 472/120/1
f 473/117/1 474/118/1 475/119/1 476/120/1
f 477/117/1 478/118/1 479/119/1 480/120/1
f 481/117/1 482/118/1 483/119/1 484/120/1
f 485/17/1 486/18/1 487/19/1 488/20/1
f 489/17/1 490/18/1 491/19/1 492/20/1
f 493/17/1 494/18/1 495/19/1 496/20/1
f 497/17/1 498/18/1 499/19/1 500/20/1
f 501/17/1 502/18/1 503/19/1 504/20/1
f 505/17/1 506/18/1 507/19/1 508/20/1
f 509/17/1 510/18/1 511/19/1 512/20/1
f 513/17/1 514/18/1 515/19/1 516/20/1
f 517/17/1 518/18/1 519/19/1 520/20/1
f 521/17/1 522/18/1 523/19/1 524/20/1
f 525/17/1 526/18/1 527/19/1 528/20/1
f 529/17/1 530/18/1 531/19/1 532/20/1
f 533/17/1 534/18/1 535/19/1 536/20/1
f 537/17/1 538/18/1 539/19/1 540/20/1
f 541/17/1 542/18/1 543/19/1 544/20/1
f 545/17/1 546/18/1 547/19/1 548/20/1
f 549/17/1 550/18/1 551/19/1 552/20/1
f 553/17/1 554/18/1 555/19/1 556/20/1
f 557/17/1 558/18/1 559/19/1 560/20/1
f 561/17/1 562/18/1 563/19/1 564/20/1
f 565/17/1 566/18/1 567/19/1 568/20/1
f 569/105/1 570/106/1 571/107/1 572/108/1
f 573/105/1 574/106/1 575/107/1 576/108/1
f 577/105/1 578/106/1 579/107/1 580/108/1
f 581/105/1 582/106/1 583/107/1 584/108/1
f 585/105/1 586/106/1 587/107/1 588/108/1
f 589/105/1 590/106/1 591/107/1 592/108/1
f 593/105/1 594/106/1 595/107/1 596/108/1
f 597/105/1 598/106/1 599/107/1 600/108/1
f 601/105/1 602/106/1 603/107/1 604/108/1
f 605/105/1 606/106/1 607/107/1 608/108/1
f 609/105/1 610/106/1 611/107/1 612/108/1
f 613/105/1 614/106/1 615/107/1 616/108/1
f 617/105/1 618/106/1 619/107/1 620/108/1
f 621/105/1 622/106/1 623/107/1 624/108/1
f 625/105/1 626/106/1 627/107/1 628/108/1
f 629/105/1 630/106/1 631/107/1 632/108/1
f 633/105/1 634/106/1 635/107/1 636/108/1
f 637/105/1 638/106/1 639/107/1 640/108/1
f 641/121/1 642/122/1 643/123/1 644/124/1
f 645/121/1 646/122/1 647/123/1 648/124/1
f 649/121/1 650/122/1 651/123/1 652/124/1
f 653/121/1 654/122/1 655/123/1 656/124/1
f 657/121/1 658/122/1 659/123/1 660/124/1
f 661/121/1 662/122/1 663/123/1 664/124/1
f 665/121/1 666/122/1 667/123/1 668/124/1
f 669/121/1 670/122/1 671/123/1 672/124/1
f 673/121/1 674/122/1 675/123/1 676/124/1
f 677/121/1 678/122/1 679/123/1 680/124/1
f 681/121/1 682/122/1 683/123/1 684/124/1
f 685/121/1 686/122/1 687/123/1 688/124/1
f 689/121/1 690/122/1 691/123/1 692/124/1
f 693/121/1 694/122/1 695/123/1 696/124/1
f 697/121/1 698/122/1 699/123/1 700/124/1
f 701/121/1 702/122/1 703/123/1 704/124/1
f 705/121/1 706/122/1 707/123/1 708/124/1
f 709/121/1 710/122/1 711/123/1 712/124/1
f 713/121/1 714/122/1 715/123/1 716/124/1
f 717/121/1 718/122/1 719/123/1 720/124/1
f 721/121/1 722/122/1 723/123/1 724/124/1
f 725/121/1 726/122/1 727/123/1 728/124/1
f 729/105/1 730/106/1 731/107/1 732/108/1
f 733/105/1 734/106/1 735/107/1 736/108/1
f 737/105/1 738/106/1 739/107/1 740/108/1
f 741/105/1 742/106/1 743/107/1 744/108/1
f 745/105/1 746/106/1 747/107/1 748/108/1
f 749/105/1 750/106/1 751/107/1 752/108/1
f 753/105/1 754/106/1 755/107/1 756/108/1
f 757/105/1 758/106/1 759/107/1 760/108/1
f 761/105/1 762/106/1 763/107/1 764/108/1
f 765/105/1 766/106/1 767/107/1 768/108/1
f 769/105/1 770/106/1 771/107/1 772/108/1
f 773/105/1 774/106/1 775/107/1 776/108/1
f 777/105/1 778/106/1 779/107/1 780/108/1
f 781/105/1 782/106/1 783/107/1 784/108/1
f 785/105/1 786/106/1 787/107/1 788/108/1
f 789/105/1 790/106/1 791/107/1 792/108/1
f 793/105/1 794/106/1 795/107/1 796/108/1
f 797/105/1 798/106/1 799/107/1 800/108/1
f 801/105/1 802/106/1 803/107/1 804/108/1
f 805/105/1 806/106/1 807/107/1 808/108/1
f 809/105/1 810/106/1 811/107/1 812/108/1

